<?xml version="1.0" encoding="UTF-8"?>
<svg width="512px" height="512px" viewBox="0 0 512 512" version="1.1" xmlns="http://www.w3.org/2000/svg" xmlns:xlink="http://www.w3.org/1999/xlink">
    <title>Artboard</title>
    <g id="Artboard" stroke="none" stroke-width="1" fill="none" fill-rule="evenodd">
        <path d="M412,0.5 C439.476166,0.5 464.351166,11.6369168 482.357125,29.6428753 C500.183024,47.4687741 511.276575,72.0270206 511.496663,99.1764996 L511.5,100 L511.5,412 C511.5,439.476166 500.363083,464.351166 482.357125,482.357125 C464.531226,500.183024 439.972979,511.276575 412.8235,511.496663 L412,511.5 L100,511.5 C72.5238337,511.5 47.6488337,500.363083 29.6428753,482.357125 C11.8169764,464.531226 0.723425241,439.972979 0.503336807,412.8235 L0.5,412 L0.5,100 C0.5,72.5238337 11.6369168,47.6488337 29.6428753,29.6428753 C47.4687741,11.8169764 72.0270206,0.723425241 99.1764996,0.503336807 L100,0.5 L412,0.5 Z M318.203959,50.0495964 C312.586622,50.0495964 307.496986,52.3087336 303.793426,56.0122929 C300.111914,59.6938053 297.799449,64.8033826 297.704028,70.5412826 L297.704028,70.5412826 L297.70396,128.777903 L296.333165,128.750836 C251.165619,127.937481 212.796628,135.027554 181.222756,150.007069 C149.179836,165.209114 124.128877,188.535324 106.071429,219.987386 C88.1211511,251.252783 82.3285712,287.479839 88.7121864,328.672477 C95.084602,369.792846 113.596756,415.869878 144.261876,466.899297 C145.03782,468.190535 146.162446,469.186937 147.465967,469.807653 C148.769488,470.428369 150.251905,470.673399 151.743432,470.461894 C153.793985,470.171116 155.532552,469.076716 156.685787,467.542371 C157.839021,466.008026 158.406922,464.033737 158.116144,461.983183 C145.955822,376.229017 153.082521,319.276277 179.675384,291.220913 C209.247647,260.022295 248.232756,250.236402 296.61245,261.810055 L296.61245,261.810055 L297.703959,262.075526 L297.703959,311.87642 L297.708845,312.324263 C297.825988,317.691633 300.045202,322.806195 303.899327,326.56068 C307.919807,330.477221 313.13674,332.410528 318.373025,332.341956 C323.574948,332.273833 328.797027,330.229836 332.881768,326.187555 L332.881768,326.187555 L462.715739,192.908071 L333.066701,56.430499 L332.758052,56.1125383 C328.913448,52.2365514 323.675487,50.0495964 318.203959,50.0495964 Z" id="Rectangle-2" stroke="#979797" fill="#FFFFFF"></path>
    </g>
</svg>